<svg xmlns="http://www.w3.org/2000/svg" viewBox="0.1356243481812778 -1.2454040489375116 0.13469033086874987 0.10728784357879058"><g vector-effect="non-scaling-stroke" stroke-width="3" stroke-linejoin="round"><path d="M0.17,-1.1489 L0.1697,-1.1489 L0.1686,-1.1492 L0.1678,-1.1498 L0.1658,-1.1494 L0.163,-1.1484 L0.1615,-1.1484 L0.1603,-1.1495 L0.1554,-1.1511 L0.1546,-1.1512 L0.1513,-1.1513 L0.1513,-1.1513 L0.1512,-1.1538 L0.1508,-1.1556 L0.1496,-1.1583 L0.1513,-1.159 L0.151,-1.1643 L0.1504,-1.167 L0.1457,-1.1699 L0.1419,-1.1726 L0.1428,-1.182 L0.1432,-1.1845 L0.1417,-1.1894 L0.1419,-1.1951 L0.1425,-1.2041 L0.1437,-1.2045 L0.1445,-1.2045 L0.1479,-1.2028 L0.1493,-1.2027 L0.1502,-1.2012 L0.1513,-1.2006 L0.1522,-1.2022 L0.1525,-1.2048 L0.1551,-1.2082 L0.157,-1.2095 L0.1583,-1.2101 L0.1595,-1.2087 L0.1605,-1.2072 L0.1607,-1.2106 L0.1615,-1.2171 L0.159,-1.2181 L0.157,-1.2172 L0.1549,-1.2131 L0.1531,-1.2079 L0.1502,-1.2074 L0.1478,-1.206 L0.1457,-1.2075 L0.1443,-1.2088 L0.1443,-1.2108 L0.1446,-1.212 L0.1471,-1.2162 L0.1504,-1.2202 L0.1538,-1.2202 L0.1562,-1.2215 L0.1577,-1.2217 L0.1623,-1.2214 L0.1646,-1.2223 L0.1668,-1.2241 L0.1713,-1.2321 L0.1739,-1.2354 L0.1791,-1.2366 L0.1838,-1.2405 L0.1852,-1.2405 L0.1829,-1.2376 L0.1826,-1.2365 L0.1823,-1.2348 L0.1839,-1.2311 L0.1836,-1.2289 L0.1837,-1.2245 L0.1822,-1.2222 L0.1804,-1.2174 L0.1797,-1.2166 L0.1795,-1.211 L0.1797,-1.2097 L0.1795,-1.2046 L0.1812,-1.2025 L0.1831,-1.2014 L0.1893,-1.2014 L0.1899,-1.2005 L0.1907,-1.199 L0.1901,-1.1963 L0.1895,-1.1943 L0.1877,-1.1926 L0.1854,-1.1914 L0.1839,-1.1913 L0.182,-1.1937 L0.1811,-1.1929 L0.1801,-1.1917 L0.1785,-1.1852 L0.1777,-1.1809 L0.1773,-1.1805 L0.1764,-1.1811 L0.1748,-1.1812 L0.1729,-1.1802 L0.1739,-1.1792 L0.1749,-1.1776 L0.1745,-1.1768 L0.1728,-1.176 L0.1712,-1.1742 L0.1706,-1.1729 L0.1686,-1.1713 L0.1674,-1.1693 L0.168,-1.1669 L0.1683,-1.1647 L0.1688,-1.1624 L0.1683,-1.1605 L0.1659,-1.1578 L0.165,-1.1554 L0.1671,-1.1555 L0.1683,-1.1549 L0.1691,-1.1542 L0.1699,-1.1533 L0.1694,-1.1521 L0.17,-1.1489 Z"/><path d="M0.2194,-1.1784 L0.2194,-1.1753 L0.219,-1.1744 L0.2183,-1.1738 L0.2165,-1.1731 L0.215,-1.1723 L0.2137,-1.1707 L0.2132,-1.1685 L0.2142,-1.1669 L0.2162,-1.166 L0.2166,-1.163 L0.2151,-1.1615 L0.211,-1.16 L0.2106,-1.1564 L0.2107,-1.1535 L0.2106,-1.1515 L0.2103,-1.1486 L0.207,-1.1473 L0.2049,-1.1517 L0.2049,-1.1534 L0.2043,-1.1554 L0.2041,-1.1572 L0.2034,-1.1599 L0.2003,-1.1607 L0.1991,-1.1608 L0.1974,-1.1603 L0.197,-1.1605 L0.195,-1.1643 L0.1953,-1.1685 L0.1942,-1.1706 L0.1941,-1.1716 L0.1941,-1.1727 L0.1932,-1.1735 L0.1921,-1.174 L0.1916,-1.1764 L0.1929,-1.177 L0.1959,-1.1767 L0.1968,-1.1769 L0.1976,-1.1774 L0.2001,-1.1813 L0.2,-1.1822 L0.2003,-1.1833 L0.2029,-1.1837 L0.2041,-1.1822 L0.2039,-1.1797 L0.204,-1.1766 L0.2057,-1.1758 L0.2063,-1.1757 L0.207,-1.178 L0.2074,-1.1791 L0.2081,-1.1797 L0.2083,-1.1818 L0.2079,-1.1831 L0.2071,-1.1841 L0.2101,-1.1867 L0.2133,-1.1888 L0.2151,-1.1889 L0.2169,-1.1884 L0.2186,-1.1877 L0.2195,-1.1871 L0.2201,-1.1861 L0.2189,-1.1838 L0.2186,-1.1825 L0.2194,-1.1784 Z"/><path d="M0.1858,-1.1729 L0.1865,-1.1713 L0.1874,-1.1679 L0.1888,-1.1641 L0.1882,-1.1625 L0.1886,-1.1604 L0.1882,-1.1583 L0.1854,-1.1558 L0.1823,-1.1557 L0.179,-1.1569 L0.1743,-1.1592 L0.174,-1.1605 L0.1733,-1.1612 L0.1721,-1.1652 L0.1721,-1.17 L0.1744,-1.1706 L0.1795,-1.173 L0.1807,-1.1726 L0.1819,-1.1714 L0.1833,-1.1713 L0.1854,-1.173 L0.1858,-1.1729 Z"/><path d="M0.1983,-1.1509 L0.2014,-1.1491 L0.2035,-1.1492 L0.2049,-1.1484 L0.2052,-1.1472 L0.2054,-1.1445 L0.2039,-1.1437 L0.2022,-1.144 L0.2,-1.143 L0.1926,-1.1473 L0.1927,-1.151 L0.193,-1.1524 L0.1965,-1.1528 L0.1983,-1.1509 Z"/><path d="M0.2633,-1.1549 L0.2627,-1.1544 L0.2598,-1.1552 L0.2563,-1.1573 L0.2568,-1.1615 L0.2577,-1.1633 L0.2641,-1.1586 L0.2642,-1.1569 L0.2633,-1.1549 Z"/><path d="M0.1873,-1.1467 L0.1866,-1.1465 L0.1855,-1.149 L0.1854,-1.1497 L0.1866,-1.1513 L0.1874,-1.1531 L0.1895,-1.1558 L0.1907,-1.159 L0.1911,-1.159 L0.1906,-1.1561 L0.1879,-1.1482 L0.1873,-1.1467 Z"/><path d="M0.1756,-1.1508 L0.1738,-1.1504 L0.1729,-1.1511 L0.1712,-1.1514 L0.1705,-1.1561 L0.1707,-1.1563 L0.1716,-1.156 L0.1745,-1.1538 L0.1755,-1.1514 L0.1756,-1.1508 Z"/><path d="M0.219,-1.1532 L0.2184,-1.1527 L0.2157,-1.1531 L0.2127,-1.151 L0.2115,-1.1516 L0.2119,-1.153 L0.2123,-1.1535 L0.2133,-1.154 L0.214,-1.1549 L0.2142,-1.1562 L0.2149,-1.1555 L0.2167,-1.1552 L0.2176,-1.1548 L0.2184,-1.1542 L0.219,-1.1532 Z"/><path d="M0.1851,-1.1783 L0.1848,-1.1777 L0.1837,-1.1783 L0.1836,-1.1803 L0.184,-1.1821 L0.1835,-1.1838 L0.1841,-1.1848 L0.1856,-1.1824 L0.1861,-1.1812 L0.1855,-1.1799 L0.1851,-1.1783 Z"/><path d="M0.1929,-1.2248 L0.1922,-1.224 L0.1898,-1.2251 L0.1908,-1.2266 L0.1935,-1.2273 L0.195,-1.2271 L0.1933,-1.2256 L0.1929,-1.2248 Z"/><path d="M0.183,-1.1496 L0.1818,-1.1493 L0.1805,-1.1499 L0.1783,-1.1524 L0.178,-1.1531 L0.1792,-1.1527 L0.1806,-1.1514 L0.1818,-1.1511 L0.1833,-1.15 L0.183,-1.1496 Z"/><path d="M0.2211,-1.1725 L0.2194,-1.1712 L0.2191,-1.1713 L0.2185,-1.1731 L0.2194,-1.1742 L0.2199,-1.1751 L0.2203,-1.1751 L0.2208,-1.1741 L0.2211,-1.1725 Z"/></g></svg>