<svg xmlns="http://www.w3.org/2000/svg" viewBox="0.42053385091825907 -0.5924090268792785 0.23361197829490754 0.2081981096128943"><g vector-effect="non-scaling-stroke" stroke-width="3" stroke-linejoin="round"><path d="M0.6435,-0.3937 L0.6378,-0.3937 L0.6321,-0.3937 L0.6263,-0.3937 L0.6206,-0.3937 L0.6149,-0.3937 L0.6092,-0.3937 L0.6034,-0.3937 L0.5977,-0.3937 L0.592,-0.3937 L0.5863,-0.3937 L0.5805,-0.3937 L0.5748,-0.3937 L0.5691,-0.3937 L0.5634,-0.3937 L0.5576,-0.3937 L0.5519,-0.3937 L0.5486,-0.3937 L0.5492,-0.3954 L0.5495,-0.3966 L0.5492,-0.3974 L0.548,-0.3976 L0.5473,-0.3973 L0.5456,-0.3938 L0.5447,-0.3937 L0.5427,-0.3937 L0.536,-0.3937 L0.5293,-0.3937 L0.5227,-0.3937 L0.516,-0.3937 L0.5093,-0.3937 L0.5027,-0.3937 L0.496,-0.3937 L0.4893,-0.3937 L0.4827,-0.3937 L0.476,-0.3937 L0.4693,-0.3937 L0.4627,-0.3937 L0.456,-0.3937 L0.4493,-0.3937 L0.4427,-0.3937 L0.436,-0.3937 L0.436,-0.3979 L0.436,-0.4022 L0.436,-0.4064 L0.436,-0.4107 L0.436,-0.4149 L0.436,-0.4192 L0.436,-0.4235 L0.436,-0.4277 L0.436,-0.432 L0.436,-0.4363 L0.436,-0.4406 L0.436,-0.4449 L0.436,-0.4492 L0.436,-0.4536 L0.436,-0.4579 L0.436,-0.4622 L0.436,-0.4666 L0.436,-0.471 L0.436,-0.4753 L0.436,-0.4797 L0.436,-0.4841 L0.436,-0.4885 L0.436,-0.4929 L0.436,-0.4973 L0.436,-0.5017 L0.436,-0.5061 L0.436,-0.5106 L0.436,-0.515 L0.436,-0.5195 L0.436,-0.5239 L0.436,-0.5284 L0.436,-0.5329 L0.4358,-0.5337 L0.4349,-0.5368 L0.434,-0.5407 L0.433,-0.5455 L0.4329,-0.547 L0.4313,-0.552 L0.4312,-0.5534 L0.4316,-0.5544 L0.4342,-0.5585 L0.435,-0.5606 L0.4357,-0.563 L0.4359,-0.565 L0.4351,-0.5681 L0.4342,-0.5708 L0.4339,-0.5736 L0.4338,-0.5764 L0.4351,-0.5783 L0.4367,-0.5801 L0.4373,-0.5811 L0.4383,-0.5824 L0.439,-0.5829 L0.4403,-0.5805 L0.443,-0.58 L0.4519,-0.5822 L0.4618,-0.58 L0.4672,-0.5792 L0.4756,-0.5773 L0.4807,-0.5739 L0.4821,-0.5735 L0.4857,-0.5735 L0.4881,-0.5715 L0.4977,-0.5706 L0.5028,-0.5684 L0.5057,-0.5666 L0.5074,-0.5661 L0.5089,-0.5662 L0.511,-0.5669 L0.5136,-0.5681 L0.5165,-0.5698 L0.5224,-0.5742 L0.5245,-0.575 L0.5258,-0.5748 L0.5275,-0.5748 L0.5282,-0.576 L0.529,-0.5768 L0.5296,-0.5778 L0.5305,-0.5789 L0.5336,-0.5792 L0.5397,-0.5811 L0.539,-0.5802 L0.5334,-0.5781 L0.5358,-0.5778 L0.5383,-0.5785 L0.5411,-0.579 L0.5416,-0.5799 L0.542,-0.5816 L0.5425,-0.5819 L0.5444,-0.5816 L0.5502,-0.5789 L0.5516,-0.5789 L0.5557,-0.5803 L0.5566,-0.5806 L0.5579,-0.5798 L0.5609,-0.5765 L0.5598,-0.5766 L0.5566,-0.5794 L0.5563,-0.578 L0.5545,-0.5755 L0.5568,-0.5745 L0.5587,-0.5741 L0.5597,-0.5727 L0.5603,-0.5715 L0.5621,-0.572 L0.5634,-0.5737 L0.5627,-0.5746 L0.5623,-0.5756 L0.5629,-0.5756 L0.5642,-0.5748 L0.5678,-0.5716 L0.569,-0.571 L0.5705,-0.5711 L0.5734,-0.572 L0.5742,-0.5718 L0.5782,-0.573 L0.5787,-0.5721 L0.5794,-0.5713 L0.5826,-0.5722 L0.5876,-0.5722 L0.5917,-0.5733 L0.5965,-0.5758 L0.5969,-0.5761 L0.5971,-0.5755 L0.5977,-0.5738 L0.5991,-0.5695 L0.6004,-0.5661 L0.602,-0.5614 L0.6024,-0.5596 L0.6027,-0.5583 L0.6049,-0.5532 L0.6062,-0.5489 L0.6072,-0.5455 L0.6086,-0.5405 L0.6092,-0.5388 L0.6082,-0.5379 L0.6063,-0.5347 L0.6042,-0.5244 L0.6012,-0.5165 L0.6009,-0.5115 L0.6004,-0.5097 L0.599,-0.5072 L0.5973,-0.5047 L0.5942,-0.506 L0.5892,-0.5103 L0.5863,-0.5145 L0.5832,-0.5171 L0.5803,-0.5206 L0.5795,-0.5232 L0.5795,-0.5248 L0.5782,-0.5288 L0.5773,-0.5307 L0.5737,-0.535 L0.5727,-0.5373 L0.5719,-0.5383 L0.5711,-0.5397 L0.5698,-0.5452 L0.5684,-0.5488 L0.5668,-0.5478 L0.567,-0.5463 L0.5656,-0.5443 L0.5648,-0.5419 L0.5654,-0.5399 L0.5684,-0.537 L0.569,-0.5357 L0.5696,-0.5329 L0.5695,-0.5291 L0.57,-0.5278 L0.5722,-0.525 L0.573,-0.5233 L0.5735,-0.5219 L0.5742,-0.5206 L0.5764,-0.5182 L0.5795,-0.5135 L0.5825,-0.5104 L0.5846,-0.5089 L0.5855,-0.5074 L0.5857,-0.5035 L0.5856,-0.5016 L0.5874,-0.4982 L0.5881,-0.4964 L0.59,-0.495 L0.5908,-0.4933 L0.5915,-0.4907 L0.5927,-0.4829 L0.5943,-0.4809 L0.5992,-0.4707 L0.6033,-0.4642 L0.6053,-0.4594 L0.6083,-0.4536 L0.6143,-0.4408 L0.6178,-0.4369 L0.6192,-0.4347 L0.6218,-0.433 L0.6245,-0.4305 L0.6219,-0.4307 L0.6212,-0.4306 L0.6203,-0.4302 L0.6199,-0.4287 L0.6197,-0.4275 L0.62,-0.4211 L0.6207,-0.4178 L0.623,-0.4116 L0.6248,-0.4098 L0.6256,-0.4086 L0.6268,-0.4077 L0.6323,-0.4056 L0.6356,-0.4012 L0.6428,-0.3956 L0.6435,-0.3941 L0.6435,-0.3937 Z"/></g></svg>