<svg xmlns="http://www.w3.org/2000/svg" viewBox="0.27495718591982715 -0.9755763354372262 0.13023565546038546 0.07908712532710341"><g vector-effect="non-scaling-stroke" stroke-width="3" stroke-linejoin="round"><path d="M0.3863,-0.9681 L0.3879,-0.9683 L0.388,-0.9683 L0.3884,-0.9681 L0.3887,-0.9669 L0.3887,-0.9668 L0.3891,-0.966 L0.3895,-0.965 L0.3901,-0.9642 L0.3914,-0.9638 L0.3931,-0.9628 L0.3941,-0.961 L0.3958,-0.9602 L0.3959,-0.9602 L0.3962,-0.9603 L0.3974,-0.9603 L0.3976,-0.96 L0.3986,-0.959 L0.3989,-0.9582 L0.3987,-0.9574 L0.3989,-0.9564 L0.3993,-0.9561 L0.3988,-0.9554 L0.3958,-0.9522 L0.3946,-0.9514 L0.3938,-0.9512 L0.3925,-0.9515 L0.3913,-0.9513 L0.3901,-0.9506 L0.389,-0.9504 L0.3882,-0.9496 L0.3872,-0.9478 L0.3859,-0.9463 L0.3846,-0.9454 L0.384,-0.9446 L0.3839,-0.9418 L0.3832,-0.941 L0.3822,-0.9402 L0.3817,-0.9394 L0.3802,-0.9352 L0.3791,-0.9338 L0.3781,-0.9328 L0.3779,-0.9318 L0.3779,-0.9307 L0.3767,-0.9285 L0.3751,-0.9263 L0.3748,-0.9253 L0.3752,-0.9241 L0.3737,-0.9226 L0.3728,-0.922 L0.3721,-0.9216 L0.3717,-0.9207 L0.3709,-0.9185 L0.3711,-0.9176 L0.3711,-0.9167 L0.3699,-0.9161 L0.3695,-0.9152 L0.3692,-0.9139 L0.3686,-0.9134 L0.3672,-0.9124 L0.3637,-0.9128 L0.3623,-0.9125 L0.3619,-0.9118 L0.3619,-0.9112 L0.3614,-0.9106 L0.3606,-0.9099 L0.3598,-0.9096 L0.3579,-0.9105 L0.354,-0.9096 L0.3533,-0.909 L0.3527,-0.9094 L0.3519,-0.9098 L0.3479,-0.9103 L0.3464,-0.9099 L0.3443,-0.9101 L0.3423,-0.9105 L0.3409,-0.9102 L0.3396,-0.9085 L0.339,-0.9079 L0.3385,-0.9075 L0.3374,-0.907 L0.3365,-0.9063 L0.3352,-0.9059 L0.3342,-0.9059 L0.3331,-0.9067 L0.3328,-0.9065 L0.3324,-0.9058 L0.3319,-0.9053 L0.3304,-0.9046 L0.33,-0.9046 L0.3299,-0.9046 L0.3287,-0.904 L0.3268,-0.9037 L0.3258,-0.904 L0.324,-0.9016 L0.3235,-0.9012 L0.3218,-0.9004 L0.3204,-0.9001 L0.3192,-0.9004 L0.3188,-0.9004 L0.3135,-0.9005 L0.3108,-0.901 L0.309,-0.9019 L0.3079,-0.903 L0.3073,-0.9041 L0.3059,-0.9048 L0.3038,-0.905 L0.3021,-0.9062 L0.3009,-0.9082 L0.2993,-0.9098 L0.2973,-0.911 L0.2957,-0.9127 L0.2945,-0.9148 L0.2923,-0.9168 L0.2892,-0.9185 L0.2883,-0.9189 L0.2881,-0.9195 L0.2866,-0.9216 L0.2859,-0.9224 L0.286,-0.9235 L0.2857,-0.9241 L0.2851,-0.9245 L0.2848,-0.9261 L0.2846,-0.9272 L0.2842,-0.928 L0.2809,-0.9281 L0.2837,-0.9309 L0.285,-0.9317 L0.2867,-0.9316 L0.2872,-0.9318 L0.2873,-0.9322 L0.2876,-0.9331 L0.2877,-0.934 L0.2879,-0.9348 L0.2877,-0.9352 L0.2869,-0.9354 L0.2865,-0.9374 L0.2869,-0.9381 L0.2873,-0.9386 L0.2868,-0.9411 L0.287,-0.9419 L0.2882,-0.942 L0.2893,-0.9425 L0.2901,-0.9431 L0.2904,-0.9439 L0.2911,-0.9454 L0.2904,-0.9473 L0.2868,-0.9485 L0.2866,-0.949 L0.2874,-0.9495 L0.2883,-0.9503 L0.2889,-0.9509 L0.2896,-0.951 L0.2906,-0.9507 L0.2923,-0.9493 L0.293,-0.9491 L0.2936,-0.9495 L0.2943,-0.9496 L0.2962,-0.9495 L0.2979,-0.9499 L0.2975,-0.9513 L0.2975,-0.9524 L0.2972,-0.9532 L0.2974,-0.9542 L0.2981,-0.9549 L0.2983,-0.9565 L0.2993,-0.9576 L0.2998,-0.9578 L0.3015,-0.9576 L0.302,-0.9573 L0.3022,-0.9572 L0.3051,-0.9545 L0.3078,-0.9525 L0.31,-0.9515 L0.3133,-0.9514 L0.3167,-0.9513 L0.3225,-0.9517 L0.3268,-0.9519 L0.3271,-0.9524 L0.3277,-0.9536 L0.3272,-0.9547 L0.3273,-0.9559 L0.328,-0.9575 L0.3301,-0.9588 L0.3362,-0.9594 L0.3398,-0.9604 L0.3403,-0.9617 L0.3415,-0.963 L0.3425,-0.9633 L0.344,-0.9627 L0.3458,-0.9615 L0.3473,-0.9609 L0.3482,-0.9613 L0.3513,-0.9633 L0.3549,-0.9652 L0.3574,-0.9704 L0.3576,-0.9713 L0.3603,-0.9719 L0.3642,-0.9718 L0.3662,-0.9711 L0.3677,-0.9707 L0.3699,-0.9709 L0.3732,-0.972 L0.3744,-0.9719 L0.3753,-0.9711 L0.3763,-0.9705 L0.377,-0.9696 L0.3776,-0.9684 L0.3778,-0.968 L0.3783,-0.9674 L0.3791,-0.9665 L0.3799,-0.9663 L0.3859,-0.9678 L0.3863,-0.9681 Z"/></g></svg>