<svg xmlns="http://www.w3.org/2000/svg" viewBox="-0.23462722323082336 -0.17809086025662385 0.05777773385985847 0.05998243493490629"><g vector-effect="non-scaling-stroke" stroke-width="3" stroke-linejoin="round"><path d="M-0.1795,-0.1486 L-0.1795,-0.1481 L-0.18,-0.1456 L-0.1808,-0.1434 L-0.1813,-0.1429 L-0.1836,-0.1423 L-0.1845,-0.1413 L-0.1853,-0.1383 L-0.1858,-0.1358 L-0.1866,-0.1354 L-0.1899,-0.1319 L-0.192,-0.1306 L-0.1935,-0.1295 L-0.1949,-0.128 L-0.1967,-0.1266 L-0.1986,-0.1241 L-0.1999,-0.1216 L-0.2008,-0.1208 L-0.2015,-0.1215 L-0.2048,-0.124 L-0.2082,-0.1257 L-0.2155,-0.1285 L-0.2179,-0.1293 L-0.2178,-0.1303 L-0.217,-0.1321 L-0.2183,-0.1342 L-0.2178,-0.1357 L-0.2183,-0.1357 L-0.2194,-0.1348 L-0.2216,-0.1351 L-0.2231,-0.1364 L-0.2243,-0.1369 L-0.2248,-0.1376 L-0.2256,-0.1411 L-0.2261,-0.1426 L-0.2273,-0.1436 L-0.2295,-0.1439 L-0.2304,-0.146 L-0.2317,-0.1477 L-0.2315,-0.1487 L-0.2304,-0.1486 L-0.2296,-0.1479 L-0.2284,-0.1476 L-0.2268,-0.1494 L-0.2254,-0.1503 L-0.225,-0.1512 L-0.2252,-0.1517 L-0.2261,-0.1509 L-0.2284,-0.1511 L-0.229,-0.1505 L-0.2301,-0.1503 L-0.2309,-0.1524 L-0.2308,-0.1536 L-0.2305,-0.155 L-0.2281,-0.1552 L-0.2279,-0.1556 L-0.2296,-0.1559 L-0.2316,-0.1575 L-0.232,-0.1586 L-0.231,-0.159 L-0.23,-0.1588 L-0.2292,-0.1586 L-0.2282,-0.159 L-0.2274,-0.1596 L-0.2269,-0.1603 L-0.2262,-0.1624 L-0.2239,-0.1631 L-0.2226,-0.1643 L-0.2214,-0.1663 L-0.2208,-0.1677 L-0.2203,-0.1684 L-0.22,-0.1689 L-0.2197,-0.1696 L-0.2192,-0.1702 L-0.2186,-0.1717 L-0.2182,-0.173 L-0.2169,-0.1736 L-0.2143,-0.1742 L-0.2119,-0.1732 L-0.2081,-0.1741 L-0.2079,-0.1753 L-0.2044,-0.1753 L-0.2002,-0.1753 L-0.1968,-0.1754 L-0.1956,-0.175 L-0.1951,-0.1741 L-0.194,-0.1726 L-0.1928,-0.1716 L-0.1913,-0.1694 L-0.1896,-0.1669 L-0.1878,-0.1645 L-0.1866,-0.1633 L-0.1864,-0.1628 L-0.1865,-0.1623 L-0.1871,-0.1612 L-0.1876,-0.1599 L-0.1876,-0.1594 L-0.1872,-0.1592 L-0.1853,-0.1588 L-0.1851,-0.1574 L-0.1851,-0.1554 L-0.1842,-0.1536 L-0.1833,-0.1522 L-0.1833,-0.1517 L-0.1855,-0.1494 L-0.1864,-0.1471 L-0.1868,-0.1465 L-0.187,-0.146 L-0.1865,-0.1458 L-0.1859,-0.1459 L-0.1851,-0.1457 L-0.1843,-0.1456 L-0.1832,-0.1465 L-0.1814,-0.1486 L-0.1808,-0.1488 L-0.1795,-0.1486 Z"/><path d="M-0.2186,-0.1302 L-0.2189,-0.1297 L-0.22,-0.1308 L-0.226,-0.1325 L-0.2244,-0.1334 L-0.2202,-0.1337 L-0.2189,-0.1332 L-0.2184,-0.1327 L-0.2182,-0.1319 L-0.2186,-0.1302 Z"/></g></svg>