<svg xmlns="http://www.w3.org/2000/svg" viewBox="1.776074395266144 -0.4326588524563682 0.14048555004233998 0.29573171029101664"><g vector-effect="non-scaling-stroke" stroke-width="3" stroke-linejoin="round"><path d="M1.8845,-0.3845 L1.8837,-0.3844 L1.8816,-0.3843 L1.8798,-0.3826 L1.8786,-0.3819 L1.8767,-0.3813 L1.8747,-0.3803 L1.8741,-0.3786 L1.874,-0.3774 L1.8737,-0.376 L1.8704,-0.3741 L1.8695,-0.3743 L1.8688,-0.375 L1.8678,-0.3748 L1.8672,-0.3745 L1.8664,-0.3745 L1.8655,-0.3741 L1.8644,-0.3742 L1.8633,-0.3748 L1.8627,-0.375 L1.862,-0.375 L1.8618,-0.3743 L1.8629,-0.3714 L1.8632,-0.3701 L1.8597,-0.3662 L1.86,-0.3637 L1.8591,-0.3617 L1.857,-0.3602 L1.8529,-0.3562 L1.8511,-0.3561 L1.8498,-0.3552 L1.8468,-0.3487 L1.8468,-0.3465 L1.8463,-0.3449 L1.8464,-0.3433 L1.8451,-0.3402 L1.8437,-0.3389 L1.8434,-0.3372 L1.8454,-0.3338 L1.8456,-0.3332 L1.8467,-0.3313 L1.8472,-0.33 L1.8481,-0.3287 L1.8512,-0.3253 L1.8526,-0.3242 L1.8542,-0.3235 L1.8572,-0.3204 L1.8588,-0.3185 L1.8581,-0.3171 L1.8584,-0.3143 L1.8563,-0.3151 L1.8565,-0.3148 L1.8591,-0.3133 L1.8629,-0.3079 L1.8662,-0.3052 L1.8696,-0.3022 L1.8707,-0.2993 L1.8737,-0.2974 L1.8771,-0.2946 L1.8769,-0.294 L1.8779,-0.2933 L1.8801,-0.2918 L1.8815,-0.2903 L1.8821,-0.2888 L1.8829,-0.2886 L1.8838,-0.2889 L1.8848,-0.2891 L1.8855,-0.289 L1.8865,-0.2874 L1.8879,-0.2859 L1.8886,-0.2846 L1.8892,-0.2848 L1.8896,-0.2846 L1.8897,-0.2835 L1.8899,-0.2828 L1.8919,-0.2806 L1.8928,-0.2786 L1.895,-0.2754 L1.8967,-0.2736 L1.8979,-0.2726 L1.8993,-0.2717 L1.9006,-0.2681 L1.9014,-0.2649 L1.9028,-0.2613 L1.9039,-0.2597 L1.9039,-0.2568 L1.9048,-0.2537 L1.9057,-0.2517 L1.906,-0.2496 L1.9063,-0.2486 L1.9067,-0.2478 L1.9077,-0.2442 L1.9074,-0.2426 L1.9067,-0.2442 L1.9068,-0.2395 L1.9074,-0.2369 L1.9072,-0.2339 L1.9078,-0.2328 L1.909,-0.2293 L1.9098,-0.2281 L1.9097,-0.2238 L1.9102,-0.2217 L1.9091,-0.223 L1.9083,-0.2244 L1.9072,-0.2237 L1.9062,-0.2225 L1.9077,-0.218 L1.906,-0.2184 L1.9062,-0.2123 L1.9069,-0.2109 L1.9069,-0.2102 L1.9067,-0.2094 L1.9063,-0.2103 L1.9062,-0.2112 L1.9059,-0.211 L1.9059,-0.2105 L1.9053,-0.2094 L1.9052,-0.2081 L1.9058,-0.2069 L1.9059,-0.2061 L1.9054,-0.205 L1.9047,-0.2039 L1.9031,-0.2037 L1.9027,-0.2015 L1.9022,-0.1992 L1.8993,-0.1988 L1.8972,-0.1967 L1.8946,-0.196 L1.8923,-0.1939 L1.8897,-0.192 L1.888,-0.1918 L1.8866,-0.1914 L1.885,-0.1882 L1.8823,-0.1878 L1.8774,-0.1853 L1.8757,-0.184 L1.8742,-0.1836 L1.8721,-0.1825 L1.8716,-0.1829 L1.8709,-0.1838 L1.869,-0.1843 L1.8681,-0.1853 L1.8679,-0.1866 L1.8676,-0.1871 L1.8672,-0.1864 L1.8669,-0.1832 L1.8666,-0.1825 L1.8658,-0.1822 L1.8642,-0.1831 L1.8627,-0.1849 L1.8606,-0.1837 L1.8613,-0.1835 L1.8622,-0.1836 L1.863,-0.1833 L1.8636,-0.1821 L1.8636,-0.1814 L1.8633,-0.1807 L1.8613,-0.1805 L1.8586,-0.1808 L1.8581,-0.1807 L1.8606,-0.1795 L1.8628,-0.1789 L1.8638,-0.1781 L1.8638,-0.1775 L1.8625,-0.1765 L1.8616,-0.1753 L1.8615,-0.1745 L1.8615,-0.1737 L1.8604,-0.1729 L1.8598,-0.1731 L1.8579,-0.1744 L1.8524,-0.1794 L1.8533,-0.1779 L1.8589,-0.1723 L1.8599,-0.1704 L1.86,-0.1691 L1.8595,-0.1684 L1.8585,-0.1676 L1.8566,-0.1676 L1.8536,-0.1697 L1.8488,-0.1747 L1.8471,-0.1754 L1.852,-0.1696 L1.8528,-0.1682 L1.8536,-0.1666 L1.8534,-0.1656 L1.853,-0.1647 L1.8413,-0.1594 L1.8396,-0.1571 L1.8382,-0.1542 L1.8359,-0.1526 L1.8346,-0.1512 L1.8307,-0.1504 L1.8286,-0.1506 L1.8308,-0.1533 L1.8294,-0.1542 L1.8294,-0.161 L1.8299,-0.1685 L1.8309,-0.1722 L1.8324,-0.1731 L1.8342,-0.1737 L1.8343,-0.1745 L1.8341,-0.1753 L1.8331,-0.1766 L1.832,-0.1772 L1.8304,-0.1775 L1.8291,-0.179 L1.8282,-0.179 L1.8267,-0.1784 L1.8258,-0.1791 L1.8255,-0.1802 L1.8242,-0.1815 L1.8226,-0.1827 L1.8233,-0.1829 L1.8241,-0.1836 L1.825,-0.1846 L1.8272,-0.1847 L1.8294,-0.1847 L1.83,-0.1849 L1.8309,-0.1859 L1.8323,-0.1872 L1.8334,-0.1879 L1.8337,-0.1884 L1.8332,-0.1898 L1.833,-0.1912 L1.8334,-0.1916 L1.8354,-0.1914 L1.8376,-0.1907 L1.8381,-0.1904 L1.8393,-0.1921 L1.8397,-0.1923 L1.8405,-0.1923 L1.8427,-0.1926 L1.8448,-0.1931 L1.8458,-0.193 L1.8467,-0.1919 L1.8475,-0.1908 L1.8479,-0.1907 L1.849,-0.1911 L1.8499,-0.1905 L1.8518,-0.1896 L1.8529,-0.1895 L1.8523,-0.1918 L1.853,-0.1934 L1.8529,-0.1938 L1.8518,-0.1946 L1.8482,-0.1975 L1.8475,-0.1984 L1.8476,-0.1998 L1.8475,-0.2018 L1.8472,-0.2031 L1.8472,-0.2039 L1.8475,-0.2045 L1.8481,-0.2047 L1.8488,-0.2048 L1.8493,-0.2053 L1.8502,-0.2067 L1.8518,-0.2066 L1.8542,-0.2058 L1.856,-0.2053 L1.857,-0.2054 L1.8572,-0.2056 L1.8572,-0.2063 L1.8573,-0.2094 L1.8573,-0.2101 L1.8588,-0.2104 L1.8611,-0.2104 L1.8623,-0.2106 L1.8634,-0.2119 L1.8663,-0.2124 L1.8684,-0.2141 L1.8703,-0.2159 L1.8712,-0.2164 L1.8724,-0.2167 L1.8733,-0.2167 L1.8744,-0.2156 L1.8753,-0.2163 L1.8763,-0.2175 L1.8769,-0.2187 L1.8772,-0.2206 L1.877,-0.2236 L1.8764,-0.2259 L1.8759,-0.2277 L1.8758,-0.2294 L1.877,-0.2329 L1.8781,-0.2367 L1.8779,-0.2382 L1.8767,-0.2406 L1.8756,-0.2435 L1.8743,-0.2467 L1.8738,-0.2472 L1.8735,-0.2481 L1.8733,-0.2491 L1.8738,-0.2524 L1.8739,-0.2535 L1.8753,-0.2549 L1.8761,-0.2566 L1.8768,-0.2585 L1.8766,-0.2595 L1.8765,-0.2615 L1.8767,-0.2625 L1.8763,-0.2633 L1.8759,-0.2645 L1.8762,-0.2652 L1.8772,-0.2659 L1.8778,-0.267 L1.8786,-0.2683 L1.8789,-0.2695 L1.8784,-0.2704 L1.8774,-0.2719 L1.8755,-0.2733 L1.8734,-0.275 L1.8724,-0.276 L1.8716,-0.2771 L1.8708,-0.2784 L1.8704,-0.2794 L1.8708,-0.28 L1.8738,-0.2815 L1.8743,-0.2821 L1.8747,-0.2829 L1.8744,-0.2837 L1.8736,-0.2842 L1.8727,-0.2845 L1.8713,-0.2854 L1.8687,-0.288 L1.8675,-0.2886 L1.8663,-0.2894 L1.8656,-0.2902 L1.8649,-0.2923 L1.8646,-0.2925 L1.8639,-0.2919 L1.863,-0.2912 L1.8622,-0.2913 L1.8615,-0.2919 L1.8612,-0.2927 L1.8604,-0.2939 L1.8596,-0.2948 L1.8594,-0.2979 L1.8592,-0.2989 L1.8588,-0.3003 L1.8582,-0.3008 L1.8575,-0.3012 L1.8559,-0.3038 L1.8548,-0.3051 L1.8502,-0.3087 L1.8496,-0.3093 L1.8484,-0.3108 L1.8462,-0.3129 L1.8447,-0.3147 L1.8435,-0.3164 L1.843,-0.318 L1.8429,-0.3192 L1.8416,-0.3209 L1.8406,-0.3223 L1.8396,-0.3227 L1.8384,-0.3229 L1.8374,-0.3238 L1.8354,-0.3257 L1.8346,-0.3269 L1.8341,-0.3277 L1.8341,-0.3286 L1.8346,-0.33 L1.8351,-0.3308 L1.8352,-0.3314 L1.8346,-0.3319 L1.8325,-0.3329 L1.8276,-0.3342 L1.8258,-0.3353 L1.8242,-0.3366 L1.8229,-0.3376 L1.817,-0.3415 L1.8153,-0.3421 L1.8137,-0.3428 L1.8133,-0.3435 L1.8133,-0.3441 L1.814,-0.3446 L1.8156,-0.3456 L1.8162,-0.3468 L1.816,-0.3483 L1.8154,-0.3498 L1.8157,-0.3504 L1.8162,-0.3504 L1.8174,-0.3505 L1.8197,-0.3505 L1.8247,-0.3492 L1.8254,-0.3493 L1.8281,-0.3518 L1.8291,-0.3533 L1.8294,-0.3546 L1.8299,-0.3554 L1.8313,-0.3567 L1.8314,-0.3579 L1.8307,-0.3595 L1.8299,-0.3601 L1.8293,-0.3604 L1.8273,-0.3602 L1.827,-0.3606 L1.8267,-0.3618 L1.8266,-0.3625 L1.8259,-0.3633 L1.8238,-0.3641 L1.822,-0.3643 L1.8216,-0.3646 L1.8223,-0.3654 L1.8235,-0.3662 L1.8244,-0.3667 L1.8252,-0.3675 L1.8253,-0.3684 L1.8244,-0.3692 L1.8232,-0.37 L1.8212,-0.3717 L1.8186,-0.3734 L1.8169,-0.374 L1.8161,-0.3739 L1.8131,-0.3724 L1.8115,-0.3715 L1.8102,-0.3697 L1.8088,-0.3694 L1.8074,-0.3701 L1.8058,-0.3709 L1.8014,-0.372 L1.7995,-0.373 L1.7957,-0.3788 L1.7951,-0.38 L1.7955,-0.3813 L1.7957,-0.3832 L1.7961,-0.3845 L1.7968,-0.3857 L1.797,-0.3867 L1.7968,-0.3878 L1.7963,-0.3884 L1.7955,-0.3885 L1.795,-0.3888 L1.7945,-0.3901 L1.7942,-0.39 L1.7937,-0.3883 L1.7931,-0.3877 L1.7924,-0.3874 L1.7918,-0.3877 L1.7914,-0.3883 L1.7913,-0.3895 L1.7909,-0.391 L1.7904,-0.392 L1.7887,-0.393 L1.788,-0.3943 L1.7855,-0.3971 L1.7834,-0.3991 L1.7825,-0.4009 L1.7833,-0.4016 L1.7844,-0.4026 L1.7855,-0.4041 L1.7868,-0.406 L1.7873,-0.4071 L1.7877,-0.4076 L1.7885,-0.4079 L1.7893,-0.4078 L1.7907,-0.407 L1.7928,-0.406 L1.7947,-0.4048 L1.7955,-0.4037 L1.7966,-0.4026 L1.7974,-0.4022 L1.7978,-0.4023 L1.799,-0.4032 L1.8001,-0.404 L1.8001,-0.405 L1.8011,-0.4058 L1.8023,-0.4072 L1.8029,-0.4082 L1.8034,-0.4083 L1.8039,-0.408 L1.8059,-0.405 L1.8063,-0.4049 L1.8069,-0.4053 L1.8076,-0.4076 L1.8085,-0.4085 L1.8088,-0.4083 L1.8137,-0.4039 L1.8141,-0.404 L1.8146,-0.4042 L1.815,-0.4048 L1.8154,-0.4063 L1.8161,-0.408 L1.8176,-0.4089 L1.8189,-0.4091 L1.8193,-0.4083 L1.8203,-0.4072 L1.8216,-0.4071 L1.8243,-0.409 L1.8252,-0.4093 L1.8262,-0.4092 L1.8271,-0.4093 L1.8281,-0.41 L1.829,-0.411 L1.8294,-0.4129 L1.8296,-0.4146 L1.8302,-0.4152 L1.831,-0.4157 L1.8325,-0.4163 L1.8359,-0.418 L1.8368,-0.4188 L1.8374,-0.4192 L1.8387,-0.4185 L1.8403,-0.4171 L1.8412,-0.4161 L1.8419,-0.415 L1.8422,-0.414 L1.8447,-0.4132 L1.8462,-0.4121 L1.8473,-0.4112 L1.8483,-0.4112 L1.8494,-0.4115 L1.8501,-0.4122 L1.8512,-0.4122 L1.8526,-0.4121 L1.8533,-0.4118 L1.8544,-0.4102 L1.8549,-0.41 L1.8559,-0.4101 L1.8579,-0.4107 L1.8595,-0.4109 L1.8609,-0.4103 L1.8637,-0.4085 L1.8629,-0.4072 L1.8623,-0.4058 L1.8611,-0.4048 L1.8602,-0.4046 L1.8597,-0.4032 L1.8594,-0.4012 L1.8597,-0.4002 L1.8604,-0.3999 L1.8612,-0.3992 L1.8615,-0.3983 L1.8616,-0.3963 L1.8615,-0.3941 L1.8616,-0.3934 L1.8622,-0.3935 L1.8628,-0.3938 L1.8639,-0.3934 L1.8653,-0.3929 L1.8662,-0.3923 L1.867,-0.3923 L1.8676,-0.3918 L1.8678,-0.3907 L1.8686,-0.3899 L1.8706,-0.3885 L1.8723,-0.3883 L1.8736,-0.3864 L1.8751,-0.387 L1.8757,-0.3862 L1.8787,-0.3865 L1.8808,-0.3873 L1.8815,-0.3871 L1.8834,-0.3855 L1.8845,-0.3845 Z"/><path d="M1.8163,-0.1824 L1.8166,-0.1815 L1.8165,-0.1794 L1.8158,-0.1774 L1.816,-0.1765 L1.8155,-0.1759 L1.8143,-0.1797 L1.8128,-0.1814 L1.8125,-0.182 L1.8134,-0.182 L1.8149,-0.183 L1.8156,-0.183 L1.8163,-0.1824 Z"/><path d="M1.878,-0.3791 L1.8755,-0.3767 L1.8745,-0.3768 L1.8754,-0.3794 L1.8758,-0.38 L1.8773,-0.3791 L1.878,-0.3791 Z"/><path d="M1.868,-0.3703 L1.8673,-0.3702 L1.8659,-0.3717 L1.8667,-0.3725 L1.8683,-0.372 L1.8686,-0.3716 L1.8686,-0.3713 L1.8682,-0.3705 L1.868,-0.3703 Z"/><path d="M1.8766,-0.3736 L1.8756,-0.3732 L1.8745,-0.3732 L1.8759,-0.3741 L1.8766,-0.3753 L1.8771,-0.3756 L1.8771,-0.3747 L1.8766,-0.3736 Z"/><path d="M1.8652,-0.3716 L1.865,-0.3712 L1.8641,-0.3721 L1.8635,-0.3725 L1.8639,-0.3737 L1.865,-0.3724 L1.8652,-0.3716 Z"/><path d="M1.8704,-0.1825 L1.869,-0.1814 L1.8689,-0.1823 L1.8701,-0.1829 L1.8706,-0.1833 L1.8709,-0.1833 L1.8704,-0.1825 Z"/><path d="M1.8608,-0.1521 L1.8603,-0.1521 L1.86,-0.1524 L1.8615,-0.1536 L1.8614,-0.1528 L1.8614,-0.1525 L1.8608,-0.1521 Z"/></g></svg>